<mxfile host="Electron" modified="2023-11-24T04:12:48.945Z" agent="Mozilla/5.0 (Windows NT 10.0; Win64; x64) AppleWebKit/537.36 (KHTML, like Gecko) draw.io/22.1.2 Chrome/114.0.5735.289 Electron/25.9.4 Safari/537.36" etag="2FXPH6R58TFVx-j4QEDi" version="22.1.2" type="device">
  <diagram name="Page-1" id="c7558073-3199-34d8-9f00-42111426c3f3">
    <mxGraphModel dx="1986" dy="785" grid="1" gridSize="10" guides="1" tooltips="1" connect="1" arrows="1" fold="1" page="1" pageScale="1" pageWidth="826" pageHeight="1169" background="none" math="0" shadow="0">
      <root>
        <mxCell id="0" />
        <mxCell id="1" parent="0" />
        <mxCell id="F2VkRp8zkFfSNEXUXBw0-102" value="" style="edgeStyle=orthogonalEdgeStyle;rounded=0;orthogonalLoop=1;jettySize=auto;html=1;" edge="1" parent="1" source="F2VkRp8zkFfSNEXUXBw0-96" target="F2VkRp8zkFfSNEXUXBw0-100">
          <mxGeometry relative="1" as="geometry" />
        </mxCell>
        <mxCell id="F2VkRp8zkFfSNEXUXBw0-96" value="Explore and&lt;br&gt;clean the data" style="rounded=0;whiteSpace=wrap;html=1;fillColor=#b0e3e6;strokeColor=#0e8088;fontSize=17;" vertex="1" parent="1">
          <mxGeometry x="-10" y="150" width="740" height="100" as="geometry" />
        </mxCell>
        <mxCell id="F2VkRp8zkFfSNEXUXBw0-119" value="" style="edgeStyle=orthogonalEdgeStyle;rounded=0;orthogonalLoop=1;jettySize=auto;html=1;" edge="1" parent="1" source="F2VkRp8zkFfSNEXUXBw0-100" target="F2VkRp8zkFfSNEXUXBw0-107">
          <mxGeometry relative="1" as="geometry" />
        </mxCell>
        <mxCell id="F2VkRp8zkFfSNEXUXBw0-100" value="" style="rounded=0;whiteSpace=wrap;html=1;fillColor=#fad7ac;strokeColor=#b46504;" vertex="1" parent="1">
          <mxGeometry x="-10" y="320" width="740" height="170" as="geometry" />
        </mxCell>
        <mxCell id="F2VkRp8zkFfSNEXUXBw0-104" value="" style="edgeStyle=orthogonalEdgeStyle;rounded=0;orthogonalLoop=1;jettySize=auto;html=1;" edge="1" parent="1" source="F2VkRp8zkFfSNEXUXBw0-99" target="F2VkRp8zkFfSNEXUXBw0-103">
          <mxGeometry relative="1" as="geometry" />
        </mxCell>
        <mxCell id="F2VkRp8zkFfSNEXUXBw0-99" value="Engineering new features" style="rounded=0;whiteSpace=wrap;html=1;fillColor=#fad9d5;strokeColor=#ae4132;fontSize=17;" vertex="1" parent="1">
          <mxGeometry y="330" width="190" height="100" as="geometry" />
        </mxCell>
        <mxCell id="F2VkRp8zkFfSNEXUXBw0-101" value="Modelling" style="text;html=1;strokeColor=none;fillColor=none;align=center;verticalAlign=middle;whiteSpace=wrap;rounded=0;fontSize=17;fontStyle=1" vertex="1" parent="1">
          <mxGeometry x="-10" y="290" width="90" height="30" as="geometry" />
        </mxCell>
        <mxCell id="F2VkRp8zkFfSNEXUXBw0-106" value="" style="edgeStyle=orthogonalEdgeStyle;rounded=0;orthogonalLoop=1;jettySize=auto;html=1;" edge="1" parent="1" source="F2VkRp8zkFfSNEXUXBw0-103" target="F2VkRp8zkFfSNEXUXBw0-105">
          <mxGeometry relative="1" as="geometry" />
        </mxCell>
        <mxCell id="F2VkRp8zkFfSNEXUXBw0-103" value="Model evaluation&lt;br&gt;+&lt;br&gt;parameters tuning" style="rounded=0;whiteSpace=wrap;html=1;fillColor=#fad9d5;strokeColor=#ae4132;fontSize=17;" vertex="1" parent="1">
          <mxGeometry x="265" y="330" width="190" height="100" as="geometry" />
        </mxCell>
        <mxCell id="F2VkRp8zkFfSNEXUXBw0-112" style="edgeStyle=orthogonalEdgeStyle;rounded=0;orthogonalLoop=1;jettySize=auto;html=1;exitX=0.5;exitY=1;exitDx=0;exitDy=0;entryX=0.5;entryY=1;entryDx=0;entryDy=0;" edge="1" parent="1" source="F2VkRp8zkFfSNEXUXBw0-105" target="F2VkRp8zkFfSNEXUXBw0-99">
          <mxGeometry relative="1" as="geometry">
            <Array as="points">
              <mxPoint x="625" y="470" />
              <mxPoint x="95" y="470" />
            </Array>
          </mxGeometry>
        </mxCell>
        <mxCell id="F2VkRp8zkFfSNEXUXBw0-114" style="edgeStyle=orthogonalEdgeStyle;rounded=0;orthogonalLoop=1;jettySize=auto;html=1;exitX=0.5;exitY=1;exitDx=0;exitDy=0;entryX=0.5;entryY=1;entryDx=0;entryDy=0;" edge="1" parent="1" source="F2VkRp8zkFfSNEXUXBw0-105" target="F2VkRp8zkFfSNEXUXBw0-103">
          <mxGeometry relative="1" as="geometry">
            <Array as="points">
              <mxPoint x="625" y="470" />
              <mxPoint x="360" y="470" />
            </Array>
          </mxGeometry>
        </mxCell>
        <mxCell id="F2VkRp8zkFfSNEXUXBw0-105" value="Error analysis" style="rounded=0;whiteSpace=wrap;html=1;fillColor=#fad9d5;strokeColor=#ae4132;fontSize=17;" vertex="1" parent="1">
          <mxGeometry x="530" y="330" width="190" height="100" as="geometry" />
        </mxCell>
        <mxCell id="F2VkRp8zkFfSNEXUXBw0-107" value="Model selection and Interpret" style="rounded=0;whiteSpace=wrap;html=1;fillColor=#b1ddf0;strokeColor=#10739e;fontSize=17;" vertex="1" parent="1">
          <mxGeometry x="-10" y="560" width="740" height="100" as="geometry" />
        </mxCell>
        <mxCell id="F2VkRp8zkFfSNEXUXBw0-118" style="edgeStyle=orthogonalEdgeStyle;rounded=0;orthogonalLoop=1;jettySize=auto;html=1;exitX=0.75;exitY=0;exitDx=0;exitDy=0;entryX=1;entryY=0.25;entryDx=0;entryDy=0;" edge="1" parent="1" source="F2VkRp8zkFfSNEXUXBw0-103" target="F2VkRp8zkFfSNEXUXBw0-103">
          <mxGeometry relative="1" as="geometry">
            <Array as="points">
              <mxPoint x="408" y="290" />
              <mxPoint x="490" y="290" />
              <mxPoint x="490" y="355" />
            </Array>
          </mxGeometry>
        </mxCell>
      </root>
    </mxGraphModel>
  </diagram>
</mxfile>
